<svg xmlns="http://www.w3.org/2000/svg" width="26.896" height="30" viewBox="0 0 26.896 30">
  <path id="bell001_-_E104" data-name="bell001 - E104" d="M-4.492-20.01a4.165,4.165,0,0,1-4.16-4.16v-.112H-17.94l4.183-5.667v-7.579a9.454,9.454,0,0,1,.72-3.621A9.307,9.307,0,0,1-11.058-44.1a9.373,9.373,0,0,1,2.946-2l.157-.045-.022-.382A3.467,3.467,0,0,1-6.965-49,3.467,3.467,0,0,1-4.492-50.01,3.546,3.546,0,0,1-2.018-49a3.467,3.467,0,0,1,1.012,2.474l-.022.382.157.045a9.373,9.373,0,0,1,2.946,2,9.7,9.7,0,0,1,1.979,2.946,9.454,9.454,0,0,1,.72,3.621v7.579l4.183,5.667H-.309v.112A4.185,4.185,0,0,1-4.492-20.01Zm0-26.807a7.359,7.359,0,0,1,1.214.09,1.2,1.2,0,0,0-1.214-1.034,1.2,1.2,0,0,0-1.214,1.034A7.359,7.359,0,0,1-4.492-46.817Zm-9,20.285H4.5L2.525-29.208v-8.321A7,7,0,0,0,.478-42.521a7.047,7.047,0,0,0-4.97-2.046,7.047,7.047,0,0,0-4.97,2.046,7,7,0,0,0-2.046,4.993v8.321ZM-6.4-24.283v.112a1.91,1.91,0,0,0,1.912,1.912,1.979,1.979,0,0,0,1.372-.562,1.887,1.887,0,0,0,.562-1.349v-.112Z" transform="translate(17.94 50.01)"/>
</svg>
