<svg xmlns="http://www.w3.org/2000/svg" width="5" height="27.5" viewBox="0 0 5 27.5">
  <path id="dots005_-_E301" data-name="dots005 - E301" d="M-11.5-30.5A2.507,2.507,0,0,1-14-28a2.507,2.507,0,0,1-2.5-2.5A2.507,2.507,0,0,1-14-33,2.507,2.507,0,0,1-11.5-30.5Zm11.25,0A2.507,2.507,0,0,1-2.75-28a2.507,2.507,0,0,1-2.5-2.5A2.507,2.507,0,0,1-2.75-33,2.507,2.507,0,0,1-.25-30.5ZM11-30.5A2.507,2.507,0,0,1,8.5-28,2.507,2.507,0,0,1,6-30.5,2.507,2.507,0,0,1,8.5-33,2.507,2.507,0,0,1,11-30.5Z" transform="translate(-28 16.5) rotate(90)"/>
</svg>
