<?xml version="1.0" encoding="UTF-8"?>
<svg xmlns="http://www.w3.org/2000/svg" xmlns:xlink="http://www.w3.org/1999/xlink" viewBox="0 0 24 24" width="24px" height="24px">
<g id="surface8935698">
<path style=" stroke:none;fill-rule:nonzero;fill:rgb(100%,100%,100%);fill-opacity:1;" d="M 10.796875 5.722656 C 8 5.722656 5.722656 8 5.722656 10.796875 C 5.722656 13.59375 8 15.871094 10.796875 15.871094 C 12.003906 15.871094 13.117188 15.445312 13.992188 14.734375 L 17.425781 18.167969 C 17.554688 18.304688 17.75 18.359375 17.9375 18.3125 C 18.121094 18.261719 18.261719 18.121094 18.3125 17.9375 C 18.359375 17.75 18.304688 17.554688 18.167969 17.425781 L 14.734375 13.992188 C 15.445312 13.117188 15.871094 12.003906 15.871094 10.796875 C 15.871094 8 13.59375 5.722656 10.796875 5.722656 Z M 10.796875 6.769531 C 13.023438 6.769531 14.820312 8.566406 14.820312 10.796875 C 14.820312 11.882812 14.390625 12.863281 13.699219 13.585938 C 13.65625 13.617188 13.617188 13.65625 13.585938 13.699219 C 12.863281 14.390625 11.882812 14.820312 10.796875 14.820312 C 8.566406 14.820312 6.769531 13.023438 6.769531 10.796875 C 6.769531 8.566406 8.566406 6.769531 10.796875 6.769531 Z M 10.796875 6.769531 "/>
</g>
</svg>
