<?xml version="1.0" encoding="UTF-8"?>
<svg xmlns="http://www.w3.org/2000/svg" xmlns:xlink="http://www.w3.org/1999/xlink" viewBox="0 0 24 24" width="24px" height="24px">
<g id="surface8934208">
<rect x="0" y="0" width="24" height="24" style="fill:rgb(0%,0%,0%);fill-opacity:1;stroke:none;"/>
<path style=" stroke:none;fill-rule:nonzero;fill:rgb(100%,100%,100%);fill-opacity:1;" d="M 10.25 3 C 6.253906 3 3 6.253906 3 10.25 C 3 14.246094 6.253906 17.5 10.25 17.5 C 11.976562 17.5 13.566406 16.890625 14.816406 15.875 L 19.71875 20.78125 C 19.90625 20.976562 20.1875 21.054688 20.449219 20.988281 C 20.710938 20.917969 20.917969 20.710938 20.988281 20.449219 C 21.054688 20.1875 20.976562 19.90625 20.78125 19.71875 L 15.875 14.816406 C 16.890625 13.566406 17.5 11.976562 17.5 10.25 C 17.5 6.253906 14.246094 3 10.25 3 Z M 10.25 4.5 C 13.433594 4.5 16 7.066406 16 10.25 C 16 11.800781 15.386719 13.203125 14.394531 14.234375 C 14.335938 14.28125 14.28125 14.335938 14.234375 14.394531 C 13.203125 15.386719 11.800781 16 10.25 16 C 7.066406 16 4.5 13.433594 4.5 10.25 C 4.5 7.066406 7.066406 4.5 10.25 4.5 Z M 10.25 4.5 "/>
</g>
</svg>
