<svg xmlns="http://www.w3.org/2000/svg" width="174.067" height="60" viewBox="0 0 174.067 60">
  <g id="Logo" transform="translate(-60 -20)">
    <g id="Group_2" data-name="Group 2" transform="translate(60 20)">
      <g id="Ellipse_1" data-name="Ellipse 1" fill="none" stroke="#000" stroke-width="2">
        <circle cx="30" cy="30" r="30" stroke="none"/>
        <circle cx="30" cy="30" r="29" fill="none"/>
      </g>
      <g id="shop" transform="translate(11.308 13.615)">
        <g id="Group_1" data-name="Group 1" transform="translate(0 0)">
          <path id="Path_1" data-name="Path 1" d="M42.041,36.647H36.992a2.508,2.508,0,0,0-2.506,2.506v3.872a2.508,2.508,0,0,0,2.506,2.506h5.049a2.508,2.508,0,0,0,2.506-2.506V39.153A2.508,2.508,0,0,0,42.041,36.647Zm.683,6.378a.685.685,0,0,1-.683.683H36.992a.685.685,0,0,1-.683-.683V39.153a.685.685,0,0,1,.683-.683h5.049a.685.685,0,0,1,.683.683Z" transform="translate(-15.64 -18.978)"/>
          <path id="Path_2" data-name="Path 2" d="M37.16,14.944a.846.846,0,0,0-.121-.448L31.511,4.777a.916.916,0,0,0-.79-.463H6.431a.9.9,0,0,0-.79.463L.121,14.5A.921.921,0,0,0,0,14.944a5.33,5.33,0,0,0,3.189,4.875V35.848a.914.914,0,0,0,.911.911H33.052a.914.914,0,0,0,.911-.911V19.933a.4.4,0,0,0-.008-.1A5.345,5.345,0,0,0,37.16,14.944Zm-30.2-8.8H30.19l4.32,7.6H2.65Zm19.484,9.415a3.5,3.5,0,0,1-6.894,0Zm-8.831,0a3.506,3.506,0,0,1-6.9,0Zm-15.733,0h6.9a3.506,3.506,0,0,1-6.9,0ZM15.307,34.937H10.068V25.1a1.3,1.3,0,0,1,1.3-1.3h2.65a1.3,1.3,0,0,1,1.3,1.3v9.833Zm16.834,0H17.13V25.1a3.125,3.125,0,0,0-3.121-3.121h-2.65A3.125,3.125,0,0,0,8.238,25.1v9.841H5.011V20.267c.106.008.213.008.319.008a5.323,5.323,0,0,0,4.419-2.354,5.325,5.325,0,0,0,8.838,0,5.311,5.311,0,0,0,8.823,0,5.323,5.323,0,0,0,4.419,2.354c.106,0,.205-.008.311-.008v14.67ZM31.83,18.452a3.5,3.5,0,0,1-3.447-2.885h6.9A3.521,3.521,0,0,1,31.83,18.452Z" transform="translate(0 -4.314)"/>
        </g>
      </g>
    </g>
    <path id="Path_20" data-name="Path 20" d="M7.017-1.494H12.8a3.362,3.362,0,0,0,1.223-.2,2.419,2.419,0,0,0,.842-.535A2.463,2.463,0,0,0,15.4-3.01a3.814,3.814,0,0,0,.264-.945l.205-1.289h1.567L17.227,0H1.143V-1.26h.381a6.474,6.474,0,0,0,.945-.066A2.072,2.072,0,0,0,3.252-1.6,1.422,1.422,0,0,0,3.787-2.2a2.424,2.424,0,0,0,.2-1.062V-18a2.793,2.793,0,0,0-.19-1.128,1.5,1.5,0,0,0-.527-.652,1.947,1.947,0,0,0-.784-.3,5.936,5.936,0,0,0-.959-.073H1.143v-1.26H16.26l.146,5.244H14.854l-.146-1.289a3.988,3.988,0,0,0-.227-.945A2.347,2.347,0,0,0,14-19.189a2.242,2.242,0,0,0-.791-.535,3,3,0,0,0-1.15-.2H7.017v7.983h7.236v1.465H7.017Zm13.535-.337a2.785,2.785,0,0,1,.146-.974,1.583,1.583,0,0,1,.4-.623,1.521,1.521,0,0,1,.6-.337,2.58,2.58,0,0,1,.74-.1,2.527,2.527,0,0,1,.725.1,1.52,1.52,0,0,1,.6.337,1.65,1.65,0,0,1,.41.623,2.664,2.664,0,0,1,.154.974,2.676,2.676,0,0,1-.154.967,1.642,1.642,0,0,1-.41.63,1.52,1.52,0,0,1-.6.337,2.527,2.527,0,0,1-.725.1A2.58,2.58,0,0,1,21.7.1a1.52,1.52,0,0,1-.6-.337,1.577,1.577,0,0,1-.4-.63A2.8,2.8,0,0,1,20.552-1.831ZM33.6.293a9.8,9.8,0,0,1-2.585-.308,5.74,5.74,0,0,1-1.875-.857A3.566,3.566,0,0,1,28.008-2.2a3.885,3.885,0,0,1-.381-1.721,1.966,1.966,0,0,1,.564-1.465,2.187,2.187,0,0,1,1.6-.557,8.072,8.072,0,0,0,.286,1.8,4.681,4.681,0,0,0,.725,1.523,3.578,3.578,0,0,0,1.23,1.055,3.806,3.806,0,0,0,1.8.4,4.7,4.7,0,0,0,3.157-.974A3.494,3.494,0,0,0,38.13-4.951,4.144,4.144,0,0,0,37.9-6.4a3.207,3.207,0,0,0-.776-1.165,6.532,6.532,0,0,0-1.428-1.025,21.511,21.511,0,0,0-2.2-1.033,16.1,16.1,0,0,1-2.432-1.223,7.558,7.558,0,0,1-1.729-1.45,5.376,5.376,0,0,1-1.025-1.78,6.788,6.788,0,0,1-.337-2.212,5.2,5.2,0,0,1,.491-2.3,4.852,4.852,0,0,1,1.37-1.707,6.247,6.247,0,0,1,2.08-1.062,8.956,8.956,0,0,1,2.622-.366,9.268,9.268,0,0,1,2.388.278,6.071,6.071,0,0,1,1.758.747,3.483,3.483,0,0,1,1.091,1.077,2.386,2.386,0,0,1,.374,1.267A1.726,1.726,0,0,1,39.5-16.9a2.751,2.751,0,0,1-1.721.491,5.745,5.745,0,0,0-.168-1.384,3.389,3.389,0,0,0-.564-1.216,2.993,2.993,0,0,0-1.04-.872,3.419,3.419,0,0,0-1.6-.337,4.6,4.6,0,0,0-1.545.242,3.184,3.184,0,0,0-1.15.688A2.979,2.979,0,0,0,31-18.208a3.8,3.8,0,0,0-.249,1.406,4.835,4.835,0,0,0,.234,1.575A3.2,3.2,0,0,0,31.765-14a6.358,6.358,0,0,0,1.443,1.04,20.947,20.947,0,0,0,2.2,1.018A19.227,19.227,0,0,1,37.756-10.8a8.075,8.075,0,0,1,1.75,1.34,5.269,5.269,0,0,1,1.1,1.655,5.353,5.353,0,0,1,.381,2.073,5.97,5.97,0,0,1-.52,2.542,5.22,5.22,0,0,1-1.487,1.9A6.713,6.713,0,0,1,36.65-.11,10.73,10.73,0,0,1,33.6.293Zm16.86-1.582a7.815,7.815,0,0,0,1-.059q.454-.059.923-.146V-.176a3.542,3.542,0,0,1-.5.176q-.308.088-.667.154t-.754.1q-.4.037-.747.037A7,7,0,0,1,47.754.051a3.034,3.034,0,0,1-1.348-.784,3.333,3.333,0,0,1-.784-1.436,8.013,8.013,0,0,1-.256-2.183V-14.37H43.081v-1.2a3.766,3.766,0,0,0,1.194-.22,2.859,2.859,0,0,0,1.15-.732,4.39,4.39,0,0,0,.828-1.326,10.846,10.846,0,0,0,.549-1.926h1.377v3.691H52.1v1.714H48.179V-4.263A3.392,3.392,0,0,0,48.8-2.007,2.091,2.091,0,0,0,50.464-1.289ZM68.73-8.071q0,4.233-1.794,6.3A6.58,6.58,0,0,1,61.685.293,7.833,7.833,0,0,1,58.77-.22a5.586,5.586,0,0,1-2.19-1.553A7.05,7.05,0,0,1,55.2-4.387a12.778,12.778,0,0,1-.476-3.684q0-4.2,1.78-6.255a6.6,6.6,0,0,1,5.266-2.051,7.935,7.935,0,0,1,2.915.505,5.552,5.552,0,0,1,2.19,1.538,6.986,6.986,0,0,1,1.377,2.593A12.627,12.627,0,0,1,68.73-8.071Zm-11.1,0a17.5,17.5,0,0,0,.22,2.944A6.5,6.5,0,0,0,58.557-3a3.355,3.355,0,0,0,1.274,1.3,3.856,3.856,0,0,0,1.912.439,3.814,3.814,0,0,0,1.9-.439A3.321,3.321,0,0,0,64.907-3a6.509,6.509,0,0,0,.7-2.131,18.087,18.087,0,0,0,.212-2.944A17.232,17.232,0,0,0,65.6-11a6.439,6.439,0,0,0-.7-2.1,3.225,3.225,0,0,0-1.267-1.267,3.965,3.965,0,0,0-1.912-.425,3.921,3.921,0,0,0-1.9.425A3.24,3.24,0,0,0,58.55-13.1a6.439,6.439,0,0,0-.7,2.1A17.232,17.232,0,0,0,57.627-8.071ZM80.039,0H71.382V-1.26h.088a5.936,5.936,0,0,0,.959-.073,1.887,1.887,0,0,0,.776-.3,1.575,1.575,0,0,0,.527-.652,2.7,2.7,0,0,0,.2-1.128v-9.36a2.424,2.424,0,0,0-.2-1.062,1.524,1.524,0,0,0-.535-.623,2.012,2.012,0,0,0-.784-.293,5.839,5.839,0,0,0-.945-.073h-.088v-1.26H76l.571,2.974h.146q.293-.674.6-1.267a4.179,4.179,0,0,1,.754-1.04,3.158,3.158,0,0,1,1.106-.7,4.6,4.6,0,0,1,1.655-.256,4.21,4.21,0,0,1,2.439.571,1.866,1.866,0,0,1,.8,1.611,2.365,2.365,0,0,1-.154.864,1.682,1.682,0,0,1-.491.681,2.324,2.324,0,0,1-.864.439,4.66,4.66,0,0,1-1.289.154,3.456,3.456,0,0,0-.352-1.794,1.347,1.347,0,0,0-1.23-.549,1.668,1.668,0,0,0-1,.315,2.956,2.956,0,0,0-.769.835,5.506,5.506,0,0,0-.557,1.194A10.879,10.879,0,0,0,77-10.671a12.941,12.941,0,0,0-.2,1.414q-.059.7-.059,1.274v4.717a2.424,2.424,0,0,0,.2,1.062,1.422,1.422,0,0,0,.535.608,2.072,2.072,0,0,0,.784.271,6.474,6.474,0,0,0,.945.066h.835ZM92.769-14.766A2.906,2.906,0,0,0,90.2-13.411a8.109,8.109,0,0,0-1.062,3.962h6.9a12.335,12.335,0,0,0-.176-2.168A5.6,5.6,0,0,0,95.3-13.3a2.8,2.8,0,0,0-1-1.084A2.882,2.882,0,0,0,92.769-14.766ZM93.135.293a7.424,7.424,0,0,1-2.922-.549,5.786,5.786,0,0,1-2.19-1.6,7.3,7.3,0,0,1-1.37-2.585,11.708,11.708,0,0,1-.476-3.479q0-4.2,1.729-6.328a5.983,5.983,0,0,1,4.922-2.124,7.089,7.089,0,0,1,2.607.454A5.084,5.084,0,0,1,97.4-14.568a6.134,6.134,0,0,1,1.238,2.241,10.157,10.157,0,0,1,.432,3.113v1.377h-9.99a12.457,12.457,0,0,0,.33,2.82,5.525,5.525,0,0,0,.864,1.941,3.4,3.4,0,0,0,1.384,1.121,4.676,4.676,0,0,0,1.89.359,5.644,5.644,0,0,0,1.443-.176A5.46,5.46,0,0,0,96.2-2.241a4.988,4.988,0,0,0,.959-.667,3.86,3.86,0,0,0,.681-.784.936.936,0,0,1,.388.366,1.172,1.172,0,0,1,.183.659,1.87,1.87,0,0,1-.322.974,3.236,3.236,0,0,1-.981.959A6.08,6.08,0,0,1,95.457,0,8.212,8.212,0,0,1,93.135.293Z" transform="translate(135 61.873)"/>
  </g>
</svg>
