<?xml version="1.0" encoding="UTF-8"?>
<svg xmlns="http://www.w3.org/2000/svg" xmlns:xlink="http://www.w3.org/1999/xlink" viewBox="0 0 50 50" width="50px" height="50px">
<g id="surface61616906">
<path style=" stroke:none;fill-rule:nonzero;fill:rgb(80.000001%,80.000001%,80.000001%);fill-opacity:1;" d="M 24.894531 25.394531 L 24.894531 24.894531 L 25.394531 24.894531 L 25.394531 25.394531 Z M 24.894531 25.394531 "/>
<path style=" stroke:none;fill-rule:nonzero;fill:rgb(0%,0%,0%);fill-opacity:1;" d="M -0.199219 -4.398438 C -2.511719 -4.398438 -4.398438 -2.511719 -4.398438 -0.199219 L -4.398438 50.199219 C -4.398438 52.511719 -2.511719 54.398438 -0.199219 54.398438 L 50.199219 54.398438 C 52.511719 54.398438 54.398438 52.511719 54.398438 50.199219 L 54.398438 -0.199219 C 54.398438 -2.511719 52.511719 -4.398438 50.199219 -4.398438 Z M 21.5 8.199219 C 28.835938 8.199219 34.800781 14.164062 34.800781 21.5 C 34.800781 24.664062 33.695312 27.578125 31.847656 29.859375 L 42.796875 40.804688 L 40.804688 42.796875 L 29.859375 31.847656 C 27.578125 33.695312 24.664062 34.800781 21.5 34.800781 C 14.164062 34.800781 8.199219 28.835938 8.199219 21.5 C 8.199219 14.164062 14.164062 8.199219 21.5 8.199219 Z M 21.5 11 C 15.699219 11 11 15.699219 11 21.5 C 11 27.300781 15.699219 32 21.5 32 C 27.300781 32 32 27.300781 32 21.5 C 32 15.699219 27.300781 11 21.5 11 Z M 21.5 11 "/>
</g>
</svg>
